<?xml version="1.0" encoding="utf-8"?>
<!-- Generator: Adobe Illustrator 25.2.0, SVG Export Plug-In . SVG Version: 6.00 Build 0)  -->
<svg version="1.1" id="Layer_1" xmlns="http://www.w3.org/2000/svg" xmlns:xlink="http://www.w3.org/1999/xlink" x="0px" y="0px"
	 viewBox="0 0 185.2 50.6" style="enable-background:new 0 0 185.2 50.6;" xml:space="preserve">
<style type="text/css">
	.st0{fill:#0064DC;}
</style>
<g>
	<path class="st0" d="M63.9,16.2H53.2h-0.5H42.5c-0.2,0-0.4,0.1-0.5,0.3l-5.4,16.9l-5.3-16.9c-0.1-0.2-0.3-0.3-0.5-0.3h-7.5
		c-0.2,0-0.4,0.1-0.5,0.3l-5.4,16.9L12,16.5c-0.1-0.2-0.3-0.3-0.5-0.3h-11c-0.3,0-0.6,0.3-0.5,0.7l11.4,32.7
		c0.1,0.2,0.3,0.3,0.5,0.3h8.9c0.2,0,0.4-0.1,0.5-0.3L27,33.4l5.7,16.2c0.1,0.2,0.3,0.3,0.5,0.3h8.9c0.2,0,0.4-0.1,0.5-0.3l10-28.9
		v28.8c0,0.3,0.2,0.5,0.5,0.5h10.7c0.3,0,0.5-0.2,0.5-0.5V16.7C64.4,16.4,64.2,16.2,63.9,16.2z"/>
	<ellipse class="st0" cx="58.6" cy="6.6" rx="6.5" ry="6.5"/>
	<path class="st0" d="M79.7,1.7H69c-0.3,0-0.5,0.2-0.5,0.5v47.2c0,0.3,0.2,0.5,0.5,0.5h10.7c0.3,0,0.5-0.2,0.5-0.5V2.2
		C80.2,2,80,1.7,79.7,1.7z"/>
	<path class="st0" d="M178.7,37.6c-3.8,0-6.5,2.9-6.5,6.5s2.7,6.5,6.5,6.5s6.5-2.9,6.5-6.5S182.5,37.6,178.7,37.6z"/>
	<path class="st0" d="M95.6,1.7H84.9c-0.3,0-0.5,0.2-0.5,0.5v47.2c0,0.3,0.2,0.5,0.5,0.5h10.7c0.3,0,0.5-0.2,0.5-0.5V2.2
		C96.1,2,95.8,1.7,95.6,1.7z"/>
	<path class="st0" d="M168.2,1.7h-10.7c-0.3,0-0.5,0.2-0.5,0.5v47.2c0,0.3,0.2,0.5,0.5,0.5h10.7c0.3,0,0.5-0.2,0.5-0.5V2.2
		C168.7,2,168.5,1.7,168.2,1.7z"/>
	<path class="st0" d="M152.4,16.2h-10.7c-0.3,0-0.5,0.2-0.5,0.5v16.7c0,3.8-2.4,6.2-5.5,6.2c-2.8,0-4.8-2.1-4.8-5.2V16.7
		c0-0.3-0.2-0.5-0.5-0.5h-1.5h-9.2h-7.2c-0.3,0-0.5-0.2-0.5-0.5v-1.9c0-2.1,1.4-3.4,3.8-3.4c1.2,0,2.2,0.2,2.8,0.4
		c0.3,0.1,0.7-0.1,0.7-0.5V1.4c0-0.2-0.1-0.4-0.4-0.5C118,0.6,115.4,0,112.4,0c-7.6,0-12.1,4.5-12.1,13.1v36.3
		c0,0.3,0.2,0.5,0.5,0.5h10.7c0.3,0,0.5-0.2,0.5-0.5V26.5h7.2v10c0,8.6,5.5,14.1,12.7,14.1c6.2,0,9.3-4.5,9.3-4.5v3.3
		c0,0.3,0.2,0.5,0.5,0.5h10.7c0.3,0,0.5-0.2,0.5-0.5V16.7C152.9,16.4,152.7,16.2,152.4,16.2z"/>
</g>
</svg>
